<?xml version="1.0" encoding="utf-8"?>
<!-- Generator: Adobe Illustrator 16.0.0, SVG Export Plug-In . SVG Version: 6.00 Build 0)  -->
<!DOCTYPE svg PUBLIC "-//W3C//DTD SVG 1.1//EN" "http://www.w3.org/Graphics/SVG/1.1/DTD/svg11.dtd">
<svg version="1.1" id="Layer_1" xmlns="http://www.w3.org/2000/svg" xmlns:xlink="http://www.w3.org/1999/xlink" x="0px" y="0px"
	 width="676.438px" height="343.857px" viewBox="0 0 676.438 343.857" enable-background="new 0 0 676.438 343.857"
	 xml:space="preserve">
<g>
	<g>
		<path fill="#00539B" d="M318.002,222.658c-0.756-0.141-1.449-0.252-2.099-0.312c-1.226-0.125-2.27-0.119-3.187,0
			c-3.386,0.439-4.918,2.475-6.232,5.467c-0.073,0.168-21.291,53.922-22.198,56.221l-0.005-0.008v0.008
			c-0.906-2.299-22.132-56.053-22.205-56.221c-1.314-2.992-2.839-5.027-6.232-5.467c-0.915-0.119-1.96-0.125-3.181,0
			c-0.652,0.061-1.349,0.172-2.093,0.312c-0.47,0.084-0.962,0.189-1.466,0.303l5.829,14.842l24.624,62.258l4.724,0.004v-0.004l0,0
			h0.005v0.004l4.723-0.004l24.619-62.258l5.828-14.842C318.954,222.848,318.467,222.742,318.002,222.658z"/>
		<path fill="#00539B" d="M80.343,197.268H52.752v102.799h11.104v-41.525h16.342c24.954,0,37.081-10.186,37.081-31.139
			C117.279,207.412,104.855,197.268,80.343,197.268z M80.198,248.855H63.856v-41.76h16.342c18.11,0,25.846,6.16,25.846,20.59
			C106.044,242.529,98.309,248.855,80.198,248.855z"/>
		<path fill="#00539B" d="M208.89,221.812c-21.911,0-36.075,15.496-36.075,39.475c0,23.9,14.164,39.34,36.075,39.34
			c22.012,0,36.226-15.439,36.226-39.34C245.115,237.309,230.901,221.812,208.89,221.812z M208.89,291.514
			c-15.816,0-25.264-11.301-25.264-30.227c0-19.008,9.447-30.359,25.264-30.359c15.912,0,25.409,11.352,25.409,30.359
			C234.299,280.213,224.802,291.514,208.89,291.514z"/>
		<g>
			<g>
				<path fill="#00539B" d="M516.176,222.66h-4.061v77.406h10.668v-67.961C522.783,225.396,522.191,222.66,516.176,222.66z"/>
				<path fill="#00539B" d="M517.59,214.92c3.707,0,6.611-2.896,6.611-6.607c0-3.588-3.027-6.619-6.611-6.619
					c-3.586,0-6.609,3.031-6.609,6.619C510.98,212.023,513.881,214.92,517.59,214.92z"/>
			</g>
			<path fill="#00539B" d="M617.365,197.305h-4.348v102.762h10.668v-94.17C623.686,199.793,623.117,197.305,617.365,197.305z"/>
			<path fill="#00539B" d="M594.697,233.965c-0.949-2.213-2.27-4.109-3.943-5.67c-2.361-2.332-5.447-4.027-9.051-5.051
				c-3.492-1-7.502-1.432-11.834-1.432c-14.766,0.082-23.07,4.355-28.465,7.426c3.99,8.439,8.213,6.379,13.674,4.031
				c4.184-1.801,9.018-2.555,14.105-2.555c2.338,0.006,4.918,0.553,7.414,1.064c1.471,0.396,2.789,0.947,3.891,1.584
				c1.779,1.113,3.045,2.484,4.01,4.266c0.945,1.799,1.459,4.17,1.459,7.207v11.021c-5.58-1.24-11.203-1.801-17.607-1.801
				c-4.482,0-8.586,0.432-12.402,1.334c-2.785,0.695-5.303,1.627-7.73,2.867c-3.447,1.889-6.268,4.455-8.275,7.656
				c-1.984,3.277-2.994,7.133-2.994,11.641c0,3.65,0.652,7.057,1.855,9.943c1.924,4.326,5.201,7.746,9.275,9.934
				c4.141,2.238,8.984,3.354,14.465,3.354c0,0,0,0,0.021,0c6.305,0,11.305-1.176,15.586-3.17c2.928-1.432,5.477-3.17,7.807-5.25
				c0.051,1.01,0.127,1.832,0.254,2.604c0.111,0.846,0.32,1.594,0.695,2.283c0.254,0.504,0.594,1.02,1.035,1.402
				c0.674,0.543,1.453,0.926,2.242,1.107c0.807,0.215,1.736,0.275,2.707,0.275h3.734v-55.654
				C596.625,240.375,595.967,236.943,594.697,233.965z M585.957,280.785c-2.713,3.133-5.58,5.805-8.934,7.641
				c-3.543,1.973-7.805,3.141-13.512,3.141c-2.324,0-4.475-0.264-6.459-0.822c-1.426-0.398-2.68-1.006-3.836-1.748
				c-1.65-1.068-2.982-2.537-3.967-4.484c-0.984-1.992-1.529-4.449-1.529-7.533c0-2.637,0.529-4.701,1.529-6.412
				c0.77-1.312,1.709-2.414,2.912-3.482c1.779-1.455,4.146-2.498,7.018-3.256c2.77-0.727,5.996-1.08,9.605-1.08
				c6.354,0,11.967,0.826,17.172,1.967V280.785z"/>
			<path fill="#00539B" d="M496.82,229.812c-3.994,8.424-7.805,5.662-13.258,3.309l0,0c-2.9-1.225-6.719-2.062-11.713-2.062l0,0
				c-5.891,0.016-10.906,1.549-14.93,4.451l0,0c-4.043,2.889-7.131,7.133-8.961,12.695l0,0c-1.262,3.732-1.955,8.006-1.955,12.887
				l0,0c0,5.529,0.818,10.385,2.271,14.426l0,0c1.514,4.082,3.635,7.32,6.365,9.822l0,0c1.852,1.674,3.906,2.992,6.254,3.979l0,0
				c3.199,1.312,6.768,1.977,10.955,1.977l0,0c5.475,0,9.674-1.217,12.836-2.766c5.275-2.73,8.887-5.842,13.461,2.287
				c-1.938,1.842-5.193,4.355-8.666,6.01c-0.516,0.242-1.051,0.475-1.609,0.711c-4.309,1.793-9.766,3.107-16.373,3.107l0,0
				c-0.033,0-0.033,0-0.033,0l0,0c-8.398,0-15.594-2.174-21.395-6.141l0,0c-5.777-4.062-10.006-9.873-12.463-17.182l0,0
				c-1.605-4.836-2.414-10.334-2.414-16.23l0,0c-0.018-9.023,2.061-16.861,5.885-23.109l0,0c3.816-6.207,9.365-10.832,16.082-13.559
				l0,0c4.453-1.715,9.465-2.611,14.799-2.611l0,0C475.021,221.951,485.943,220.977,496.82,229.812z"/>
			<g>
				<path fill="#00539B" d="M337.633,214.92c3.707,0,6.613-2.896,6.613-6.607c0-3.588-3.029-6.619-6.613-6.619
					c-3.585,0-6.614,3.031-6.614,6.619C331.019,212.023,333.927,214.92,337.633,214.92z"/>
				<path fill="#00539B" d="M336.214,222.66h-4.061v77.406h10.673v-67.961C342.826,225.396,342.23,222.66,336.214,222.66z"/>
			</g>
			<path fill="#00539B" d="M401.686,221.812c-10.42,0-20.709,3.623-30.645,10.787v-0.777c0-6.229-0.551-9.162-5.613-9.162h-5.061
				v77.406h10.674v-57.15c10.387-7.779,19.535-11.564,27.955-11.564c9.186,0,12.939,3.711,12.939,12.795v55.92h10.668v-56.768
				C422.604,229.238,415.371,221.812,401.686,221.812z"/>
		</g>
		<path fill="#00539B" d="M162.974,222.094c-5.646-0.014-10.635,1.73-14.905,4.398l0,0c-2.794,1.703-5.314,3.779-7.545,5.996l0,0
			l0,0c0-1.852-0.033-3.297-0.212-4.477l0,0c-0.061-0.928-0.203-1.67-0.453-2.418l0,0c-0.193-0.486-0.417-1.002-0.812-1.479l0,0
			c-0.274-0.291-0.585-0.568-0.92-0.779l0,0c-0.516-0.322-1.066-0.527-1.653-0.594l0,0c-0.491-0.057-1.001-0.07-1.541-0.111h-5.088
			v77.436l0,0h10.68v-55.578l0,0c3.749-4.434,7.226-7.17,9.606-8.674c0.083-0.049,0.154-0.094,0.236-0.143
			c4.321-2.74,7.784-3.49,10.53-3.758c4.967-0.479,8.287-1.127,8.773-8.854C167.687,222.482,165.401,222.117,162.974,222.094z"/>
	</g>
	<g>
		<path fill="#00539B" d="M316.553,108.584l14.053-46.89l14.23,46.89H316.553z M352.869,53.519
			c-2.846-8.445-4.447-10.429-12.492-10.429h-19.638l-31.448,102.749h16.018l6.751-22.126h37.351l6.783,22.126h27.848
			L352.869,53.519z"/>
		<path fill="#00539B" d="M163.909,132.144V56.459h13.202c6.359,0,11.848,5.246,11.848,11.588c0,2.23-0.42,4.312-2.593,7.44
			l-8.558,12.833c8.956,2.15,14.938,8.973,14.938,21.718c0,15.501-9.276,22.105-21.53,22.105H163.909z M197.151,83.356l5.044-7.433
			c10.6-15.754,3.302-32.851-17.68-32.851h-44.792v102.8h43.195C220.906,145.873,232.281,101.627,197.151,83.356"/>
		<path fill="#00539B" d="M84.237,132.144h-7.249V56.459h13.139c6.368,0,11.897,5.246,11.897,11.588c0,2.23-0.407,4.312-2.621,7.44
			l-8.609,12.833c8.988,2.15,14.961,8.973,14.961,21.718C105.755,125.54,96.495,132.144,84.237,132.144 M110.164,83.356l5.006-7.433
			c10.646-15.754,3.352-32.851-17.686-32.851H52.752v102.8h43.195C133.898,145.873,145.384,101.627,110.164,83.356"/>
		<path fill="#00539B" d="M242.354,56.459c-3.656-11.579-5.514-13.387-12.535-13.387H211.68l33.623,102.767h24.691l31.324-102.767
			h-16.26l-23.191,78.057L242.354,56.459z"/>
		<path fill="#00539B" d="M52.752,43.073h43.195"/>
	</g>
</g>
</svg>
